<svg id="Layer_1" xmlns="http://www.w3.org/2000/svg" viewBox="-152 275.3 290.6 290.6"><style>.st0{fill:#7dcc90}.st1{fill:#333}</style><path class="st0" d="M-28.5 373.7h9.4v93.8h-9.4zm37.5 0h9.4v93.8H9zm37.5 0h9.4v93.8h-9.4z"/><path class="st1" d="M-84.8 495.6H96.9L137 355h-11c-1.5-29.4-16.6-32.8-23.3-32.8-6.1 0-10.6 2.3-14.1 5.5v-5.5c0-7.8 6.3-14.1 14.1-14.1v-9.4c-12.9 0-23.4 10.5-23.4 23.4v5.5c-3.4-3.2-8-5.5-14.1-5.5-4.1 0-11.2 1.2-16.5 8.7l6.4-27.3c1.6-6.9 0-14-4.4-19.6-4.4-5.6-11-8.7-18.1-8.7-10.6 0-19.8 7.2-22.4 17.5l-6.5 25.9c-8.3-17.3-26-29.3-46.4-29.3-28.4 0-51.6 23.1-51.6 51.6 0 4.8.7 9.5 2 14.1h-6.1l-15.6-65.6h-36.5v9.4h29.1l44.6 187.5h-8.1c-12.9 0-23.4 10.5-23.4 23.4 0 12.9 10.5 23.4 23.4 23.4h.4c-.3 1.5-.4 3.1-.4 4.7 0 15.5 12.6 28.1 28.1 28.1s28.1-12.6 28.1-28.1c0-1.6-.2-3.2-.4-4.7h66.5c-.3 1.5-.4 3.1-.4 4.7 0 15.5 12.6 28.1 28.1 28.1s28.1-12.6 28.1-28.1-12.6-28.1-28.1-28.1c-10.4 0-19.4 5.7-24.3 14.1h-73.2c-4.9-8.4-13.9-14.1-24.3-14.1s-19.4 5.7-24.3 14.1h-3.8c-7.8 0-14.1-6.3-14.1-14.1s6.4-14.1 14.1-14.1zm150-164.1c10.8 0 14.1 14.9 14.2 15 .4 2.2 2.4 3.7 4.6 3.7 2.2 0 4.1-1.6 4.6-3.7 0-.1 3.4-15 14.2-15 10.6 0 13.4 13.1 13.9 23.4H51.3c.6-10.3 3.4-23.4 13.9-23.4zm-56.4 5.8L19.4 295c1.5-6.1 7-10.4 13.3-10.4 4.2 0 8.1 1.9 10.7 5.2 2.6 3.3 3.5 7.5 2.6 11.6L33.4 355H6.9c1.3-4.6 2-9.3 2-14.1.1-1.2 0-2.4-.1-3.6zm-9.2 3.6c0 4.8-.9 9.5-2.5 14.1h-13.8c-1.6-4.5-2.5-9.2-2.5-14.1 0-9.8 3.3-19 9.4-26.5 5.9 7.3 9.4 16.5 9.4 26.5zm-16.1-33.1c-7.8 9.3-12 20.8-12 33.1 0 4.8.7 9.5 2 14.1h-32.2c1.3-4.6 2-9.3 2-14.1 0-12.2-4.2-23.8-12-33.1 7.2-5.7 16.2-9.1 26.1-9.1s18.9 3.4 26.1 9.1zm-68.3 33.1c0-10 3.5-19.2 9.4-26.5 6.1 7.5 9.4 16.7 9.4 26.5 0 4.8-.9 9.5-2.5 14.1h-13.8c-1.6-4.6-2.5-9.3-2.5-14.1zM-96 364.3h220.7L89.8 486.2H-67l-29-121.9zM65.2 519c10.3 0 18.8 8.4 18.8 18.8s-8.4 18.8-18.8 18.8-18.8-8.4-18.8-18.8S54.9 519 65.2 519zm-121.9 0c10.3 0 18.8 8.4 18.8 18.8s-8.4 18.8-18.8 18.8-18.8-8.4-18.8-18.8S-67 519-56.7 519z"/><circle class="st1" cx="65.2" cy="537.8" r="4.7"/><circle class="st1" cx="-56.7" cy="537.8" r="4.7"/><path class="st1" d="M-66 387.8H98.1v9.4H-66zm4.6 28.1h150v9.4h-150zm4.7 28.1H79.2v9.4H-56.7z"/><path transform="rotate(104.035 27.699 319.816)" class="st1" d="M23 310.1h9.4v19.3H23z"/><path transform="rotate(104.035 23.01 338.565)" class="st1" d="M18.3 328.9h9.4v19.3h-9.4z"/></svg>