<svg id="Layer_1" xmlns="http://www.w3.org/2000/svg" viewBox="-152 275.3 290.6 290.6"><style>.st0{fill:#7dcc90}.st1{fill:#333}</style><path class="st0" d="M-39.5 481.5h-93.8v-79.7h93.8v79.7z"/><path class="st1" d="M91.8 401.8v-9.4c0-12.9-10.5-23.4-23.4-23.4H35.5v-61h-46.9v-9.4c0-12.9-10.5-23.4-23.4-23.4h-46.9c-12.9 0-23.4 10.5-23.4 23.4v9.4H-152v229.7h103.1v28.1h187.5v-164H91.8zm28.8 9.4L103 425.3l17.6 14.1H91.3c-2.2-10.7-11.6-18.8-23-18.8H21.4c-11.3 0-20.8 8.1-23 18.8h-29.3l17.6-14.1-17.6-14.1h151.5zm8.7 5.1v18l-11.2-9 11.2-9zm-37.5 55.8c0 2.6-2.1 4.7-4.7 4.7s-4.7-2.1-4.7-4.7 2.1-4.7 4.7-4.7c2.5.1 4.7 2.2 4.7 4.7zm-10.3-32.8H8.2c1.9-5.4 7.1-9.4 13.2-9.4h46.9c6.1.1 11.3 4 13.2 9.4zM7.4 472.1c0 2.6-2.1 4.7-4.7 4.7s-4.7-2.1-4.7-4.7 2.1-4.7 4.7-4.7c2.6.1 4.7 2.2 4.7 4.7zm-35.7-46.8l-11.2 9v-18l11.2 9zm35.7-23.5v-9.4c0-7.8 6.3-14.1 14.1-14.1h4.7v23.4H7.4zm60.9-23.4c7.8 0 14.1 6.3 14.1 14.1v9.4H35.5v-23.4h32.8zm-42.2-37.9l-11.2-9 11.2-9v18zm-121.9-41.8c0-7.8 6.3-14.1 14.1-14.1h46.9c7.8 0 14.1 6.3 14.1 14.1v9.4h-75l-.1-9.4zm0 18.8H17.4L-.2 331.6l17.6 14.1h-29.3c-2.2-10.7-11.6-18.8-23-18.8h-46.9c-11.3 0-20.8 8.1-23 18.8h-29.3l17.6-14.1-17.6-14.1h38.3zm84.4 60.9c0 2.6-2.1 4.7-4.7 4.7s-4.7-2.1-4.7-4.7 2.1-4.7 4.7-4.7 4.7 2.1 4.7 4.7zm-10.2-32.8h-73.3c1.9-5.4 7.1-9.4 13.2-9.4h46.9c6.1 0 11.2 3.9 13.2 9.4zm-74.2 32.8c0 2.6-2.1 4.7-4.7 4.7s-4.7-2.1-4.7-4.7 2.1-4.7 4.7-4.7 4.7 2.1 4.7 4.7zm-35.6-46.9l-11.2 9v-18l11.2 9zm-11.2 196.9V355h37.5v10.2c-5.4 1.9-9.4 7.1-9.4 13.2 0 7.8 6.3 14.1 14.1 14.1s14.1-6.3 14.1-14.1c0-6.1-3.9-11.3-9.4-13.2V355h75v10.2c-5.4 1.9-9.4 7.1-9.4 13.2 0 7.8 6.3 14.1 14.1 14.1s14-6.4 14-14.1c0-6.1-3.9-11.3-9.4-13.2V355h37.5v14h-4.7C8.5 369-2 379.5-2 392.5v9.4h-46.9V528.5l-93.7-.1zm271.9 28.1H-39.5V448.7H-2v10.2c-5.4 1.9-9.4 7.1-9.4 13.2 0 7.8 6.3 14.1 14.1 14.1s14.1-6.3 14.1-14.1c0-6.1-3.9-11.3-9.4-13.2v-10.2h75v10.2C77 460.8 73 466 73 472.1c0 7.8 6.3 14.1 14.1 14.1s14.1-6.3 14.1-14.1c0-6.1-3.9-11.3-9.4-13.2v-10.2h37.5v107.8z"/></svg>