<svg id="Layer_1" xmlns="http://www.w3.org/2000/svg" viewBox="-151 275.3 291.6 291.6"><style>.st0{fill:#7dcc90}.st1{fill:#333}</style><circle class="st0" cx="13.6" cy="402.2" r="65.6"/><path class="st1" d="M110.9 294.4c-32.9 0-65.1-6.2-95.6-18.4l-1.7-.7-1.7.7c-30.5 12.2-62.7 18.4-95.6 18.4h-10.4v98.4h-23.4c-7.8 0-14.1 6.3-14.1 14.1v79.7c0 7.8 6.3 14.1 14.1 14.1h42.2c11.1 17.6 26.4 32.1 44.7 42.1L13.7 567 58 542.8c39.2-21.4 63.5-62.3 63.5-106.9V294.4h-10.6zm-233.3 192.2v-79.7c0-2.6 2.1-4.7 4.7-4.7h42.2c2.6 0 4.7 2.1 4.7 4.7v79.7c0 2.6-2.1 4.7-4.7 4.7h-42.2c-2.6-.1-4.7-2.2-4.7-4.7zm61-70.4c15.7-.8 28.1-13.9 28.1-29.7v-24.2c0-6.5 5.3-11.7 11.7-11.7s11.7 5.3 11.7 11.7v29.5c0 8.3 6.7 15 15 15h34.4c8.9 0 16.2 7.3 16.2 16.2v52c0 9-7.3 16.2-16.2 16.2h-69.1c-3.7 0-7.2-1.9-9.2-4.9-3.8-5.7-10.2-9.1-17-9.1h-5.6v-61zM112 435.8c0 41.2-22.4 79-58.6 98.7l-39.8 21.7-39.8-21.7c-16.3-8.9-30.1-21.7-40.2-37.2 2.8-2.4 4.7-5.9 5-9.8 9.5 16.3 23.1 29.7 39.7 38.8l35.4 19.3 35.4-19.3c33.1-18.1 53.7-52.7 53.7-90.5v-71.1h-9.4v71.1c0 34.3-18.7 65.8-48.8 82.2l-30.9 16.8-31-16.8c-13.2-7.2-24.3-17.4-32.6-29.7 1.3.8 2.5 1.9 3.4 3.2 3.8 5.7 10.2 9.1 17 9.1h69.1c14.1 0 25.6-11.5 25.6-25.6v-51.9c0-14.1-11.5-25.6-25.6-25.6H5.2c-3.1 0-5.7-2.5-5.7-5.7v-29.5c0-11.6-9.5-21.1-21.1-21.1s-21.1 9.5-21.1 21.1v24.1c0 10.7-8.3 19.4-18.8 20.2 0-4.1-1.9-7.7-4.7-10.2v-74.5c27.2-1.7 54-7.2 79.7-16.6 25.7 9.3 52.5 14.9 79.7 16.6v5.2h9.4V313l-4.5-.2c-28.4-1.3-56.3-7-83-16.8l-1.6-.6-1.6.6c-26.7 9.9-54.6 15.5-83 16.8l-4.5.2v79.8H-85v-89.1h1.1c33.5 0 66.2-6.2 97.4-18.4 31.1 12.2 63.9 18.4 97.4 18.4h1.1v132.1z"/><path class="st1" d="M93.3 345.9h9.4v9.4h-9.4zM-113 472.5h32.8v9.4H-113z"/></svg>