<svg id="Layer_1" xmlns="http://www.w3.org/2000/svg" viewBox="-1854 855.4 306 306"><style>.st0{fill:#333}.st1{fill:#3dcd8e}</style><path class="st0" d="M-1566.1 932h-107.4l35.4-5.9c14.6-2.4 25.1-14.9 25.1-29.7 0-16.6-13.5-30.1-30.1-30.1h-.9c-8.5 0-16.6 3.6-22.2 9.8l-35.9 39.4-35.9-39.4c-5.7-6.3-13.8-9.8-22.2-9.8h-.9c-16.6 0-30.1 13.5-30.1 30.1 0 14.8 10.6 27.2 25.1 29.7l35.4 5.9H-1838v51.6h14.1V1157h243.7v-32.8h-9.4v23.4h-93.8v-164h6.5l26.3 52.7c4 8 12 13 21 13h2.5c12.9 0 23.4-10.5 23.4-23.4 0-12.9-10.5-23.4-23.4-23.4h-9.4v9.4h9.4c7.8 0 14.1 6.3 14.1 14.1s-6.3 14.1-14.1 14.1h-2.5c-5.4 0-10.2-3-12.6-7.8l-24.2-48.5h76.8v79.7h9.4v-79.7h14.1V932zm-145.3 19.9l5.2-10.5h8.3l5.2 10.5v22.3h-18.8v-22.3h.1zm-9.4 22.3h-1.8l1.8-3.6v3.6zm61.5-91.7c3.9-4.3 9.5-6.8 15.3-6.8h.9c11.4 0 20.7 9.3 20.7 20.7 0 10.2-7.3 18.7-17.3 20.4l-55.4 9.2-1.3-2.7 37.1-40.8zm-122.5 13.9c0-11.4 9.3-20.7 20.7-20.7h.9c5.8 0 11.4 2.5 15.3 6.8l37.2 40.9-1.3 2.7-55.4-9.2c-10.1-1.7-17.4-10.3-17.4-20.5zm-46.8 77.8v-32.8h107.8v8.3l-12.3 24.5h-95.5zm14 173.4v-164h76.8l-24.2 48.5c-2.4 4.8-7.2 7.8-12.6 7.8h-2.5c-7.8 0-14.1-6.3-14.1-14.1s6.3-14.1 14.1-14.1h9.4v-9.4h-9.4c-12.9 0-23.4 10.5-23.4 23.4 0 12.9 10.5 23.4 23.4 23.4h2.5c8.9 0 17-5 21-13l26.3-52.7h6.5v164.1h-93.8zm121.9 0h-18.8v-164h18.8v164zm9.4-173.4v-3.6l1.8 3.6h-1.8zm107.8 0h-95.6l-12.3-24.5v-8.3h107.8v32.8z"/><path class="st1" d="M-1577.4 1049.2c-7.7 0-15 3.5-19.8 9.5l-11.1 13.9-11.1-13.9c-4.8-6-12.1-9.5-19.8-9.5-14 0-25.3 11.3-25.3 25.3 0 25.2 12.6 48.7 33.5 62.7l22.7 15.1 22.7-15.1c20.9-14 33.5-37.5 33.5-62.7 0-14-11.3-25.3-25.3-25.3z"/></svg>